<?xml version="1.0" encoding="utf-8"?>
<!-- Generator: Adobe Illustrator 16.0.0, SVG Export Plug-In . SVG Version: 6.00 Build 0)  -->
<!DOCTYPE svg PUBLIC "-//W3C//DTD SVG 1.1//EN" "http://www.w3.org/Graphics/SVG/1.1/DTD/svg11.dtd">
<svg version="1.1" id="图层_1" xmlns="http://www.w3.org/2000/svg" xmlns:xlink="http://www.w3.org/1999/xlink" x="0px" y="0px"
	 width="22px" height="30px" viewBox="0 0 22 30" enable-background="new 0 0 22 30" xml:space="preserve">
<g>
	<path fill="#DF4D4B" d="M10.787,29.384C4.838,29.384,0,24.72,0,18.988c0-1.899,0.537-3.757,1.551-5.374l8.482-12.602
		c0.168-0.247,0.446-0.396,0.744-0.396l0,0c0.299,0,0.58,0.148,0.747,0.396l8.479,12.571c1.032,1.643,1.572,3.503,1.572,5.404
		C21.575,24.72,16.735,29.384,10.787,29.384L10.787,29.384z M10.778,3.125L3.057,14.596c-0.818,1.305-1.26,2.832-1.26,4.393
		c0,4.739,4.034,8.597,8.99,8.597s8.989-3.857,8.989-8.597c0-1.563-0.44-3.091-1.28-4.425L10.778,3.125L10.778,3.125z M10.778,3.125
		"/>
</g>
</svg>
